HIERARCHY
ROOT pelvis
{
  OFFSET 0 100 0
  CHANNELS 6 Xposition Yposition Zposition Zrotation Xrotation Yrotation
  JOINT pelvis_right_femur
  {
    OFFSET -10.78128 -3.44521 -0.5502486
    CHANNELS 3 Zrotation Xrotation Yrotation
    JOINT right_femur_tibia
    {
      OFFSET -0.8047443 -44.0398 -0.1307829
      CHANNELS 3 Zrotation Xrotation Yrotation
      JOINT right_tibia_foot
      {
        OFFSET 3.006224 -47.83518 -5
        CHANNELS 3 Zrotation Xrotation Yrotation
        End Site
        {
          OFFSET 0 -5 15
        }
      }
    }
  }
  JOINT pelvis_left_femur
  {
    OFFSET 10.78128 -3.44521 -0.5502486
    CHANNELS 3 Zrotation Xrotation Yrotation
    JOINT left_femur_tibia
    {
      OFFSET 0.8047443 -44.0398 -0.1307829
      CHANNELS 3 Zrotation Xrotation Yrotation
      JOINT left_tibia_foot
      {
        OFFSET -4.370144 -48.10324 -4.275266
        CHANNELS 3 Zrotation Xrotation Yrotation
        End Site
        {
          OFFSET 0 -5 15
        }
      }
    }
  }
  JOINT pelvis_spine1
  {
    OFFSET 0 6.468898 -3.129235
    CHANNELS 3 Zrotation Xrotation Yrotation
    JOINT spine1
    {
      OFFSET 0 23.15396 4.99043
      CHANNELS 3 Zrotation Xrotation Yrotation
      JOINT spine2
      {
        OFFSET 0 20.79997 -5.064912
        CHANNELS 3 Zrotation Xrotation Yrotation
        JOINT neck
        {
          OFFSET 0 14.38658 9.616178
          CHANNELS 3 Zrotation Xrotation Yrotation
          End Site
          {
            OFFSET 0 20 0
          }
        }
      }
      JOINT right_manubrium
      {
        OFFSET -5.722621 16.35077 3.967754
        CHANNELS 3 Zrotation Xrotation Yrotation
        JOINT right_clavicle
        {
          OFFSET -13.16364 1.694482 -4.693211
          CHANNELS 3 Zrotation Xrotation Yrotation
          JOINT right_humerus
          {
            OFFSET -28.5034 -0.3100689 -2.792744
            CHANNELS 3 Zrotation Xrotation Yrotation
            JOINT right_radius
            {
              OFFSET -25.15693 0.02248979 -1.271978
              CHANNELS 3 Zrotation Xrotation Yrotation
              End Site
              {
                OFFSET -15 0 0
              }
            }
          }
        }
      }
      JOINT left_manubrium
      {
        OFFSET 5.722621 16.35077 3.967754
        CHANNELS 3 Zrotation Xrotation Yrotation
        JOINT left_clavicle
        {
          OFFSET 13.16364 1.694482 -4.693211
          CHANNELS 3 Zrotation Xrotation Yrotation
          JOINT left_humerus
          {
            OFFSET 29.39168 -1.063119 -2.237045
            CHANNELS 3 Zrotation Xrotation Yrotation
            JOINT left_radius
            {
              OFFSET 24.59957 -0.9528479 0.9047498
              CHANNELS 3 Zrotation Xrotation Yrotation
              End Site
              {
                OFFSET 15 -0 -0
              }
            }
          }
        }
      }
    }
  }
}
MOTION
Frames: 9
Frame Time: 0.0416666666667
1325.427 94.04096 2751.509 7.440884 -4.176708 47.06365 -0.2403329 5.073614 5.24807 -0 54.15067 -0 4.050583 -0.2318252 -6.801173 -4.960601 -8.384135 -7.291777 -0 22.67381 -0 -4.383431 -11.88763 16.99965 -3.150998 0.1367884 6.319726 -1.083983 10.24737 -4.227858 2.190747 22.14274 5.609864 1.505141 -16.96166 8.00869 2.330046 -18.8317 10.62436 84.86692 23.98485 -10.00264 -0 0 19.27509 -24.6884 12.43813 13.35092 3.041055 -15.59512 -3.67386 -89.64323 23.74814 21.01819 0 0 -10.89544 -1.729856 5.168878 16.7269
1330.391 95.04165 2754.93 7.545067 -4.554908 48.3608 0.1350159 -1.486837 4.63729 -0 55.6144 -0 3.360301 -0.1871152 -7.761808 -5.184713 -3.064334 -7.63465 -0 20.3767 -0 -4.181613 -13.30441 16.33275 -2.956149 0.6088987 5.056314 -0.7662406 10.28928 -5.019867 2.022137 22.44697 5.922533 1.382433 -16.53328 8.30281 2.438667 -17.85631 10.55655 86.18385 24.51379 -11.9124 -0 0 17.23567 -24.10437 12.87394 12.83899 3.315044 -16.63224 -4.143821 -87.73657 23.86651 17.66638 0 0 -13.08193 -0.9992882 5.728488 15.72821
1335.022 95.68889 2758.132 7.228193 -4.557624 49.62428 0.3907797 -8.665803 3.757489 -0 52.90454 -0 2.410707 -0.796352 -8.326132 -5.241978 2.175164 -7.998702 -0 17.15436 -0 -3.85475 -14.94199 15.64067 -2.772447 0.9507254 3.897623 -0.3314716 10.2379 -5.945285 1.820284 22.6486 6.305461 1.388877 -16.28433 8.555135 2.54417 -16.92567 10.46579 87.38965 25.67241 -14.1201 -0 0 15.09034 -23.71644 13.5184 12.49663 3.818547 -17.95963 -4.567708 -85.69227 23.86295 14.06926 0 0 -16.14268 -0.1381534 6.545959 14.53628
1339.444 95.79247 2761.248 6.507241 -4.106337 50.72754 0.4370257 -15.64242 2.714365 -0 45.75141 -0 1.42578 -1.644312 -8.52511 -5.21663 6.938404 -8.342237 -0 13.96329 -0 -3.484481 -16.71156 14.95407 -2.673099 1.077182 3.027221 0.1847769 10.08061 -6.883699 1.656537 22.67637 6.658629 1.52032 -16.2991 8.726391 2.622353 -16.09015 10.35183 88.49236 27.20721 -16.53959 -0 0 13.02793 -23.53106 14.31555 12.33874 4.517495 -19.3978 -4.870081 -83.77346 23.72221 10.61213 0 0 -19.72968 0.6897693 7.433759 13.37328
1343.848 95.29009 2764.461 5.656758 -3.315769 51.63043 0.2490207 -21.18933 1.669579 -0 35.39148 -0 0.6926349 -2.349929 -8.557777 -5.211998 10.8699 -8.487952 -0 12.17175 -0 -3.29525 -18.34709 14.22654 -2.713088 0.9746569 2.539016 0.6991001 9.796918 -7.642508 1.628066 22.56022 6.816738 1.667653 -16.5069 8.804179 2.56135 -15.32405 10.20861 89.52444 28.44391 -18.89309 -0 0 11.18484 -23.45199 15.07269 12.24265 5.273121 -20.66237 -5.010452 -82.16709 23.42392 7.560437 0 0 -23.19548 1.360349 8.119841 12.37265
1348.43 94.25162 2767.949 5.222154 -2.511204 52.40521 -0.174038 -24.22739 0.7795339 -0 24.61616 -0 0.3655317 -2.888212 -8.775929 -5.327767 13.85768 -8.197622 -0 12.5553 -0 -3.466375 -19.51478 13.4428 -2.928916 0.7266009 2.364082 1.080216 9.40667 -8.050077 1.788631 22.46193 6.648606 1.659919 -16.61025 8.802801 2.147645 -14.53449 10.02202 90.56276 28.50159 -20.82492 -0 0 9.492781 -23.30226 15.43027 11.9392 5.909026 -21.58608 -5.043209 -80.79377 22.88452 4.775949 0 0 -26.05175 1.947053 8.337172 11.3798
1353.296 92.83264 2771.815 5.552584 -2.021266 53.15668 -0.6386496 -24.8865 0.3066319 -0 16.31043 -0 0.3717844 -3.705991 -9.450918 -5.519439 16.20608 -7.58449 -0 14.5035 -0 -4.019144 -20.05221 12.81614 -3.234352 0.4706929 2.325652 1.183344 8.952187 -8.059531 2.119848 22.51033 6.18521 1.47428 -16.23085 8.736672 1.338912 -13.62012 9.758944 91.5965 27.14341 -22.13633 -0 0 7.895107 -22.73889 15.11151 11.07318 6.417608 -22.21185 -5.030114 -79.49802 22.21233 1.958637 0 0 -28.34838 2.593178 8.080644 10.20965
1358.444 91.36405 2776.071 6.042097 -1.95326 53.86782 -0.3805524 -24.75119 0.7647793 -0 12.31041 -0 0.4502903 -4.832707 -10.383 -5.436963 18.47852 -7.358062 -0 17.33157 -0 -5.018973 -19.74567 12.5595 -3.24505 0.255257 2.190914 1.062257 8.469189 -7.858892 2.516626 22.55711 5.63191 1.33096 -15.56215 8.596491 0.7222098 -12.60067 9.44216 92.25993 25.56986 -22.88223 -0 0 6.681357 -21.29311 14.37392 9.563718 6.843749 -22.45742 -4.857174 -78.58134 22.00572 -0.3708524 0 0 -29.89546 3.164687 7.812874 9.225
1363.79 90.38591 2780.641 5.696164 -2.313113 54.35442 1.301001 -24.76031 2.295121 -0 13.00243 -0 0.1885128 -5.367185 -10.9257 -4.761127 20.39155 -7.870677 -0 22.22129 -0 -6.43988 -17.96409 12.47585 -2.592888 0.02943827 1.835746 1.129867 8.180478 -7.829981 2.741071 22.39724 5.210095 1.371206 -15.52697 8.329095 1.022451 -11.85167 9.296064 92.15157 25.16137 -23.21358 -0 0 6.087404 -19.13231 13.73092 8.076155 6.838185 -22.12411 -4.461416 -78.6919 22.6409 -0.8042748 0 0 -29.68566 3.330153 7.900775 9.079778
